<svg width="1365" height="1053" viewBox="0 0 1365 1053" fill="none" xmlns="http://www.w3.org/2000/svg">
<path fill-rule="evenodd" clip-rule="evenodd" d="M1363.59 540.297C1363.24 819.177 955.11 973.267 583.655 1039.33C299.279 1089.91 9.59024 989.929 -144.896 808.583C-271.501 659.966 -144.792 488.283 -8.39199 344.35C143.845 183.705 322.142 0.970406 584.887 38.4958C960.672 92.1657 1363.93 260.991 1363.59 540.297Z" stroke="#FF9800" stroke-opacity="0.75"/>
<path fill-rule="evenodd" clip-rule="evenodd" d="M1363.58 466.763C1363.24 745.644 955.102 899.734 583.647 965.798C299.271 1016.37 9.58277 916.395 -144.903 735.05C-271.509 586.432 -396.068 495.408 -259.669 351.475C-107.432 190.831 295.167 430.761 815.477 117.962C1335.79 -194.836 1363.92 187.457 1363.58 466.763Z" stroke="#FF9800" stroke-opacity="0.75"/>
</svg>
