<svg width="466" height="338" viewBox="0 0 466 338" fill="none" xmlns="http://www.w3.org/2000/svg">
<g opacity="0.75">
<circle cx="2.77161" cy="3.0564" r="2.5" fill="white"/>
<circle cx="34.7202" cy="3.0564" r="2.5" fill="white"/>
<circle cx="66.6689" cy="3.0564" r="2.5" fill="white"/>
<circle cx="98.6176" cy="3.0564" r="2.5" fill="white"/>
<circle cx="130.566" cy="3.0564" r="2.5" fill="white"/>
<circle cx="162.515" cy="3.0564" r="2.5" fill="white"/>
<circle cx="194.463" cy="3.0564" r="2.5" fill="white"/>
<circle cx="226.412" cy="3.0564" r="2.5" fill="white"/>
<circle cx="258.361" cy="3.0564" r="2.5" fill="white"/>
<circle cx="290.309" cy="3.0564" r="2.5" fill="white"/>
<circle cx="322.258" cy="3.0564" r="2.5" fill="white"/>
<circle cx="354.206" cy="3.0564" r="2.5" fill="white"/>
<circle cx="386.155" cy="3.0564" r="2.5" fill="white"/>
<circle cx="418.104" cy="3.0564" r="2.5" fill="white"/>
<circle cx="450.052" cy="3.0564" r="2.5" fill="white"/>
<circle cx="2.77161" cy="28.6157" r="2.5" fill="white"/>
<circle cx="34.7202" cy="28.6157" r="2.5" fill="white"/>
<circle cx="66.6689" cy="28.6157" r="2.5" fill="white"/>
<circle cx="98.6176" cy="28.6157" r="2.5" fill="white"/>
<circle cx="130.566" cy="28.6157" r="2.5" fill="white"/>
<circle cx="162.515" cy="28.6157" r="2.5" fill="white"/>
<circle cx="194.463" cy="28.6157" r="2.5" fill="white"/>
<circle cx="226.412" cy="28.6157" r="2.5" fill="white"/>
<circle cx="258.361" cy="28.6157" r="2.5" fill="white"/>
<circle cx="290.309" cy="28.6157" r="2.5" fill="white"/>
<circle cx="322.258" cy="28.6157" r="2.5" fill="white"/>
<circle cx="354.206" cy="28.6157" r="2.5" fill="white"/>
<circle cx="386.155" cy="28.6157" r="2.5" fill="white"/>
<circle cx="418.104" cy="28.6157" r="2.5" fill="white"/>
<circle cx="450.052" cy="28.6157" r="2.5" fill="white"/>
<circle cx="2.77161" cy="54.1748" r="2.5" fill="white"/>
<circle cx="34.7202" cy="54.1748" r="2.5" fill="white"/>
<circle cx="66.6689" cy="54.1748" r="2.5" fill="white"/>
<circle cx="98.6176" cy="54.1748" r="2.5" fill="white"/>
<circle cx="130.566" cy="54.1748" r="2.5" fill="white"/>
<circle cx="162.515" cy="54.1748" r="2.5" fill="white"/>
<circle cx="194.463" cy="54.1748" r="2.5" fill="white"/>
<circle cx="226.412" cy="54.1748" r="2.5" fill="white"/>
<circle cx="258.361" cy="54.1748" r="2.5" fill="white"/>
<circle cx="290.309" cy="54.1748" r="2.5" fill="white"/>
<circle cx="322.258" cy="54.1748" r="2.5" fill="white"/>
<circle cx="354.206" cy="54.1748" r="2.5" fill="white"/>
<circle cx="386.155" cy="54.1748" r="2.5" fill="white"/>
<circle cx="418.104" cy="54.1748" r="2.5" fill="white"/>
<circle cx="450.052" cy="54.1748" r="2.5" fill="white"/>
<circle cx="2.77161" cy="79.7339" r="2.5" fill="white"/>
<circle cx="34.7202" cy="79.7339" r="2.5" fill="white"/>
<circle cx="66.6689" cy="79.7339" r="2.5" fill="white"/>
<circle cx="98.6176" cy="79.7339" r="2.5" fill="white"/>
<circle cx="130.566" cy="79.7339" r="2.5" fill="white"/>
<circle cx="162.515" cy="79.7339" r="2.5" fill="white"/>
<circle cx="194.463" cy="79.7339" r="2.5" fill="white"/>
<circle cx="226.412" cy="79.7339" r="2.5" fill="white"/>
<circle cx="258.361" cy="79.7339" r="2.5" fill="white"/>
<circle cx="290.309" cy="79.7339" r="2.5" fill="white"/>
<circle cx="322.258" cy="79.7339" r="2.5" fill="white"/>
<circle cx="354.206" cy="79.7339" r="2.5" fill="white"/>
<circle cx="386.155" cy="79.7339" r="2.5" fill="white"/>
<circle cx="418.104" cy="79.7339" r="2.5" fill="white"/>
<circle cx="450.052" cy="79.7339" r="2.5" fill="white"/>
<circle cx="2.77161" cy="105.293" r="2.5" fill="white"/>
<circle cx="34.7202" cy="105.293" r="2.5" fill="white"/>
<circle cx="66.6689" cy="105.293" r="2.5" fill="white"/>
<circle cx="98.6176" cy="105.293" r="2.5" fill="white"/>
<circle cx="130.566" cy="105.293" r="2.5" fill="white"/>
<circle cx="162.515" cy="105.293" r="2.5" fill="white"/>
<circle cx="194.463" cy="105.293" r="2.5" fill="white"/>
<circle cx="226.412" cy="105.293" r="2.5" fill="white"/>
<circle cx="258.361" cy="105.293" r="2.5" fill="white"/>
<circle cx="290.309" cy="105.293" r="2.5" fill="white"/>
<circle cx="322.258" cy="105.293" r="2.5" fill="white"/>
<circle cx="354.206" cy="105.293" r="2.5" fill="white"/>
<circle cx="386.155" cy="105.293" r="2.5" fill="white"/>
<circle cx="418.104" cy="105.293" r="2.5" fill="white"/>
<circle cx="450.052" cy="105.293" r="2.5" fill="white"/>
<circle cx="2.77161" cy="130.853" r="2.5" fill="white"/>
<circle cx="34.7202" cy="130.853" r="2.5" fill="white"/>
<circle cx="66.6689" cy="130.853" r="2.5" fill="white"/>
<circle cx="98.6176" cy="130.853" r="2.5" fill="white"/>
<circle cx="130.566" cy="130.853" r="2.5" fill="white"/>
<circle cx="162.515" cy="130.853" r="2.5" fill="white"/>
<circle cx="194.463" cy="130.853" r="2.5" fill="white"/>
<circle cx="226.412" cy="130.853" r="2.5" fill="white"/>
<circle cx="258.361" cy="130.853" r="2.5" fill="white"/>
<circle cx="290.309" cy="130.853" r="2.5" fill="white"/>
<circle cx="322.258" cy="130.853" r="2.5" fill="white"/>
<circle cx="354.206" cy="130.853" r="2.5" fill="white"/>
<circle cx="386.155" cy="130.853" r="2.5" fill="white"/>
<circle cx="418.104" cy="130.853" r="2.5" fill="white"/>
<circle cx="450.052" cy="130.853" r="2.5" fill="white"/>
<circle cx="2.77161" cy="156.412" r="2.5" fill="white"/>
<circle cx="34.7202" cy="156.412" r="2.5" fill="white"/>
<circle cx="66.6689" cy="156.412" r="2.5" fill="white"/>
<circle cx="98.6176" cy="156.412" r="2.5" fill="white"/>
<circle cx="130.566" cy="156.412" r="2.5" fill="white"/>
<circle cx="162.515" cy="156.412" r="2.5" fill="white"/>
<circle cx="194.463" cy="156.412" r="2.5" fill="white"/>
<circle cx="226.412" cy="156.412" r="2.5" fill="white"/>
<circle cx="258.361" cy="156.412" r="2.5" fill="white"/>
<circle cx="290.309" cy="156.412" r="2.5" fill="white"/>
<circle cx="322.258" cy="156.412" r="2.5" fill="white"/>
<circle cx="354.206" cy="156.412" r="2.5" fill="white"/>
<circle cx="386.155" cy="156.412" r="2.5" fill="white"/>
<circle cx="418.104" cy="156.412" r="2.5" fill="white"/>
<circle cx="450.052" cy="156.412" r="2.5" fill="white"/>
<circle cx="2.77161" cy="181.971" r="2.5" fill="white"/>
<circle cx="34.7202" cy="181.971" r="2.5" fill="white"/>
<circle cx="66.6689" cy="181.971" r="2.5" fill="white"/>
<circle cx="98.6176" cy="181.971" r="2.5" fill="white"/>
<circle cx="130.566" cy="181.971" r="2.5" fill="white"/>
<circle cx="162.515" cy="181.971" r="2.5" fill="white"/>
<circle cx="194.463" cy="181.971" r="2.5" fill="white"/>
<circle cx="226.412" cy="181.971" r="2.5" fill="white"/>
<circle cx="258.361" cy="181.971" r="2.5" fill="white"/>
<circle cx="290.309" cy="181.971" r="2.5" fill="white"/>
<circle cx="322.258" cy="181.971" r="2.5" fill="white"/>
<circle cx="354.206" cy="181.971" r="2.5" fill="white"/>
<circle cx="386.155" cy="181.971" r="2.5" fill="white"/>
<circle cx="418.104" cy="181.971" r="2.5" fill="white"/>
<circle cx="450.052" cy="181.971" r="2.5" fill="white"/>
<circle cx="2.77161" cy="207.53" r="2.5" fill="white"/>
<circle cx="34.7202" cy="207.53" r="2.5" fill="white"/>
<circle cx="66.6689" cy="207.53" r="2.5" fill="white"/>
<circle cx="98.6176" cy="207.53" r="2.5" fill="white"/>
<circle cx="130.566" cy="207.53" r="2.5" fill="white"/>
<circle cx="162.515" cy="207.53" r="2.5" fill="white"/>
<circle cx="194.463" cy="207.53" r="2.5" fill="white"/>
<circle cx="226.412" cy="207.53" r="2.5" fill="white"/>
<circle cx="258.361" cy="207.53" r="2.5" fill="white"/>
<circle cx="290.309" cy="207.53" r="2.5" fill="white"/>
<circle cx="322.258" cy="207.53" r="2.5" fill="white"/>
<circle cx="354.206" cy="207.53" r="2.5" fill="white"/>
<circle cx="386.155" cy="207.53" r="2.5" fill="white"/>
<circle cx="418.104" cy="207.53" r="2.5" fill="white"/>
<circle cx="450.052" cy="207.53" r="2.5" fill="white"/>
<circle cx="2.77161" cy="233.089" r="2.5" fill="white"/>
<circle cx="34.7202" cy="233.089" r="2.5" fill="white"/>
<circle cx="66.6689" cy="233.089" r="2.5" fill="white"/>
<circle cx="98.6176" cy="233.089" r="2.5" fill="white"/>
<circle cx="130.566" cy="233.089" r="2.5" fill="white"/>
<circle cx="162.515" cy="233.089" r="2.5" fill="white"/>
<circle cx="194.463" cy="233.089" r="2.5" fill="white"/>
<circle cx="226.412" cy="233.089" r="2.5" fill="white"/>
<circle cx="258.361" cy="233.089" r="2.5" fill="white"/>
<circle cx="290.309" cy="233.089" r="2.5" fill="white"/>
<circle cx="322.258" cy="233.089" r="2.5" fill="white"/>
<circle cx="354.206" cy="233.089" r="2.5" fill="white"/>
<circle cx="386.155" cy="233.089" r="2.5" fill="white"/>
<circle cx="418.104" cy="233.089" r="2.5" fill="white"/>
<circle cx="450.052" cy="233.089" r="2.5" fill="white"/>
<circle cx="2.77161" cy="258.648" r="2.5" fill="white"/>
<circle cx="34.7202" cy="258.648" r="2.5" fill="white"/>
<circle cx="66.6689" cy="258.648" r="2.5" fill="white"/>
<circle cx="98.6176" cy="258.648" r="2.5" fill="white"/>
<circle cx="130.566" cy="258.648" r="2.5" fill="white"/>
<circle cx="162.515" cy="258.648" r="2.5" fill="white"/>
<circle cx="194.463" cy="258.648" r="2.5" fill="white"/>
<circle cx="226.412" cy="258.648" r="2.5" fill="white"/>
<circle cx="258.361" cy="258.648" r="2.5" fill="white"/>
<circle cx="290.309" cy="258.648" r="2.5" fill="white"/>
<circle cx="322.258" cy="258.648" r="2.5" fill="white"/>
<circle cx="354.206" cy="258.648" r="2.5" fill="white"/>
<circle cx="386.155" cy="258.648" r="2.5" fill="white"/>
<circle cx="418.104" cy="258.648" r="2.5" fill="white"/>
<circle cx="450.052" cy="258.648" r="2.5" fill="white"/>
<circle cx="2.77161" cy="284.207" r="2.5" fill="white"/>
<circle cx="34.7202" cy="284.207" r="2.5" fill="white"/>
<circle cx="66.6689" cy="284.207" r="2.5" fill="white"/>
<circle cx="98.6176" cy="284.207" r="2.5" fill="white"/>
<circle cx="130.566" cy="284.207" r="2.5" fill="white"/>
<circle cx="162.515" cy="284.207" r="2.5" fill="white"/>
<circle cx="194.463" cy="284.207" r="2.5" fill="white"/>
<circle cx="226.412" cy="284.207" r="2.5" fill="white"/>
<circle cx="258.361" cy="284.207" r="2.5" fill="white"/>
<circle cx="290.309" cy="284.207" r="2.5" fill="white"/>
<circle cx="322.258" cy="284.207" r="2.5" fill="white"/>
<circle cx="354.206" cy="284.207" r="2.5" fill="white"/>
<circle cx="386.155" cy="284.207" r="2.5" fill="white"/>
<circle cx="418.104" cy="284.207" r="2.5" fill="white"/>
<circle cx="450.052" cy="284.207" r="2.5" fill="white"/>
<circle cx="2.77161" cy="309.766" r="2.5" fill="white"/>
<circle cx="34.7202" cy="309.766" r="2.5" fill="white"/>
<circle cx="66.6689" cy="309.766" r="2.5" fill="white"/>
<circle cx="98.6176" cy="309.766" r="2.5" fill="white"/>
<circle cx="130.566" cy="309.766" r="2.5" fill="white"/>
<circle cx="162.515" cy="309.766" r="2.5" fill="white"/>
<circle cx="194.463" cy="309.766" r="2.5" fill="white"/>
<circle cx="226.412" cy="309.766" r="2.5" fill="white"/>
<circle cx="258.361" cy="309.766" r="2.5" fill="white"/>
<circle cx="290.309" cy="309.766" r="2.5" fill="white"/>
<circle cx="322.258" cy="309.766" r="2.5" fill="white"/>
<circle cx="354.206" cy="309.766" r="2.5" fill="white"/>
<circle cx="386.155" cy="309.766" r="2.5" fill="white"/>
<circle cx="418.104" cy="309.766" r="2.5" fill="white"/>
<circle cx="450.052" cy="309.766" r="2.5" fill="white"/>
<circle cx="2.77161" cy="335.325" r="2.5" fill="white"/>
<circle cx="34.7202" cy="335.325" r="2.5" fill="white"/>
<circle cx="66.6689" cy="335.325" r="2.5" fill="white"/>
<circle cx="98.6176" cy="335.325" r="2.5" fill="white"/>
<circle cx="130.566" cy="335.325" r="2.5" fill="white"/>
<circle cx="162.515" cy="335.325" r="2.5" fill="white"/>
<circle cx="194.463" cy="335.325" r="2.5" fill="white"/>
<circle cx="226.412" cy="335.325" r="2.5" fill="white"/>
<circle cx="258.361" cy="335.325" r="2.5" fill="white"/>
<circle cx="290.309" cy="335.325" r="2.5" fill="white"/>
<circle cx="322.258" cy="335.325" r="2.5" fill="white"/>
<circle cx="354.206" cy="335.325" r="2.5" fill="white"/>
<circle cx="386.155" cy="335.325" r="2.5" fill="white"/>
<circle cx="418.104" cy="335.325" r="2.5" fill="white"/>
<circle cx="450.052" cy="335.325" r="2.5" fill="white"/>
</g>
</svg>
