<svg width="453" height="281" viewBox="0 0 453 281" fill="none" xmlns="http://www.w3.org/2000/svg">
<g clip-path="url(#clip0_904_403)">
<mask id="mask0_904_403" style="mask-type:luminance" maskUnits="userSpaceOnUse" x="0" y="0" width="453" height="281">
<path d="M452.989 0H0V281H452.989V0Z" fill="white"/>
</mask>
<g mask="url(#mask0_904_403)">
<path d="M117.877 163.434L122.019 161.055L126.15 163.434L122.008 165.812L117.877 163.434Z" fill="#BDBDBD"/>
<path d="M126.704 168.511L130.846 166.133L134.977 168.511L130.835 170.89L126.704 168.511Z" fill="#BDBDBD"/>
<path d="M135.509 173.589L139.651 171.211L143.782 173.589L139.64 175.968L135.509 173.589Z" fill="#BDBDBD"/>
<path d="M144.336 178.667L148.478 176.289L152.61 178.667L148.467 181.046L144.336 178.667Z" fill="#BDBDBD"/>
<path d="M153.141 183.734L157.284 181.355L161.415 183.734L157.272 186.113L153.141 183.734Z" fill="#BDBDBD"/>
<g opacity="0.5">
<path d="M400.347 70.8473C400.347 70.8473 400.303 70.7477 400.292 70.7035C400.281 70.6592 400.258 70.6371 400.247 70.5928C400.236 70.5486 400.225 70.5265 400.203 70.4822C399.66 69.21 398.83 68.1258 397.788 67.5284L397.489 67.3514L361.859 46.8406L326.23 26.3298L325.931 26.1528C324.889 25.5665 323.848 25.5443 322.995 26.02C322.973 26.02 322.951 26.0422 322.929 26.0643C322.907 26.0643 322.885 26.0864 322.863 26.1086L318.155 28.8079L320.869 29.9474L311.455 79.6866C311.211 80.9589 311.433 82.386 311.964 83.6582C311.975 83.7025 311.986 83.7246 312.009 83.7689C312.02 83.791 312.031 83.8352 312.053 83.8684C312.596 85.1407 313.426 86.2249 314.467 86.8223L385.539 127.744L384.874 130.864L389.327 128.297C389.327 128.297 389.371 128.275 389.393 128.253C390.257 127.8 390.922 126.881 391.165 125.587L400.801 74.653C401.034 73.4139 400.845 72.0532 400.347 70.8252V70.8473Z" fill="#BDBDBD"/>
<path d="M381.674 130.875L309.827 89.4996C307.656 88.2495 306.338 84.8863 306.881 82.01L316.383 31.8061C316.937 28.9187 319.13 27.58 321.312 28.8302L393.159 70.2057C395.33 71.4559 396.648 74.819 396.105 77.6954L386.602 127.899C386.048 130.787 383.855 132.125 381.674 130.875Z" fill="url(#paint0_linear_904_403)"/>
<path d="M392.86 70.0396L357.23 49.5288L346.066 108.55L381.386 130.709C383.723 132.059 386.026 130.963 386.536 128.275L396.171 77.3412C396.681 74.6529 395.197 71.3782 392.871 70.0396H392.86Z" fill="url(#paint1_linear_904_403)"/>
<path d="M321.6 29.0069L357.23 49.5177L346.143 108.163L310.126 89.6653C307.789 88.3156 306.305 85.0521 306.814 82.3637L316.45 31.4297C316.959 28.7414 319.274 27.6462 321.6 28.9959V29.0069Z" fill="url(#paint2_linear_904_403)"/>
<path d="M307.279 86.2027C307.855 87.652 308.874 88.9463 310.137 89.6765L381.397 130.709C382.659 131.439 383.9 131.45 384.874 130.886L352.944 72.2412L307.279 86.2027Z" fill="url(#paint3_linear_904_403)"/>
<path d="M395.717 73.5135C395.141 72.0643 394.122 70.7699 392.86 70.0398L321.6 29.0071C320.337 28.277 319.097 28.2659 318.122 28.8301L350.053 87.475L395.717 73.5135Z" fill="url(#paint4_linear_904_403)"/>
</g>
<path d="M67.5053 114.037C67.5607 113.916 67.605 113.794 67.6493 113.672C67.6936 113.595 67.7158 113.495 67.7601 113.418C67.8044 113.318 67.8376 113.241 67.8819 113.152C69.2442 109.922 71.3596 107.211 73.9845 105.685L74.7266 105.253L164.726 53.4343L254.726 1.61524L255.468 1.18379C258.082 -0.32078 260.718 -0.331843 262.911 0.851897C262.977 0.874023 263.033 0.918275 263.088 0.951464C263.143 0.995716 263.21 1.01784 263.265 1.05103L275.149 7.88796L268.293 10.7754L292.062 136.418C292.671 139.659 292.128 143.233 290.766 146.452C290.721 146.54 290.688 146.629 290.655 146.717C290.611 146.795 290.588 146.894 290.544 146.972C289.182 150.202 287.066 152.935 284.442 154.439L104.941 257.801L106.602 265.678L95.3492 259.184C95.3492 259.184 95.2274 259.117 95.172 259.084C92.9679 257.912 91.3288 255.599 90.7085 252.358L66.3756 123.695C65.7775 120.576 66.2649 117.146 67.5275 114.026H67.5164L67.5053 114.037Z" fill="#BDBDBD"/>
<path d="M114.643 265.678L296.148 161.166C301.642 158.002 304.976 149.527 303.58 142.226L279.59 15.4108C278.217 8.10923 272.646 4.75714 267.153 7.92116L85.647 112.422C80.1536 115.586 76.8198 124.06 78.2153 131.362L102.205 258.177C103.578 265.479 109.149 268.831 114.643 265.667V265.678Z" fill="url(#paint5_linear_904_403)"/>
<path d="M86.3891 111.991L176.4 60.1606L204.609 209.246L115.385 265.235C109.493 268.632 103.656 265.877 102.382 259.084L78.0492 130.422C76.7645 123.629 80.508 115.376 86.4002 111.969L86.3891 111.991Z" fill="url(#paint6_linear_904_403)"/>
<path d="M266.411 8.34149L176.4 60.1716L204.432 208.316L295.417 161.597C301.31 158.19 305.053 149.937 303.768 143.144L279.413 14.4815C278.129 7.68877 272.303 4.93409 266.411 8.33043V8.34149Z" fill="url(#paint7_linear_904_403)"/>
<path d="M302.605 152.813C301.132 156.486 298.585 159.75 295.406 161.586L115.385 265.246C112.195 267.072 109.039 267.105 106.602 265.689L187.265 117.544L302.628 152.824H302.617L302.605 152.813Z" fill="url(#paint8_linear_904_403)"/>
<path d="M79.1789 120.775C80.652 117.102 83.1993 113.838 86.378 112.002L266.411 8.34156C269.6 6.51617 272.757 6.48298 275.194 7.89904L194.531 156.044L79.1678 120.764L79.1789 120.775Z" fill="url(#paint9_linear_904_403)"/>
<path d="M388.031 152.316L386.325 150.612L384.62 152.316L386.325 154.019L388.031 152.316Z" fill="#242424"/>
<path d="M394.2 152.316L392.494 150.612L390.789 152.316L392.494 154.019L394.2 152.316Z" fill="#242424"/>
<path d="M391.121 149.24L389.415 147.536L387.71 149.24L389.415 150.944L391.121 149.24Z" fill="#242424"/>
<path d="M391.11 155.391L389.404 153.687L387.699 155.391L389.404 157.094L391.11 155.391Z" fill="#242424"/>
<path d="M442.888 139.216L440.053 136.395L447.34 129.127L440.053 121.859L442.888 119.038L453.011 129.127L442.888 139.216ZM440.861 136.395L442.888 138.409L452.18 129.138L442.888 119.867L440.861 121.87L448.149 129.138L440.861 136.395Z" fill="#242424"/>
<path opacity="0.5" d="M431.591 119.458L429.177 121.881L436.453 129.149L429.177 136.395L431.591 138.818L438.879 131.572L441.304 129.149L431.591 119.469V119.458Z" fill="#242424"/>
<path d="M10.123 140.965L0 130.875L10.123 120.786L12.9584 123.607L5.67067 130.864L12.9584 138.121L10.123 140.942V140.965ZM0.819589 130.875L10.112 140.146L12.1388 138.132L4.85108 130.875L12.1388 123.607L10.112 121.604L0.819589 130.864V130.875Z" fill="#242424"/>
<path opacity="0.5" d="M21.3979 140.566L23.8235 138.144L16.5358 130.886L23.8235 123.64L21.3979 121.217L14.1102 128.475L11.6958 130.886L21.3979 140.566Z" fill="#242424"/>
</g>
</g>
<defs>
<linearGradient id="paint0_linear_904_403" x1="-429.587" y1="-371.639" x2="-350.165" y2="-325.628" gradientUnits="userSpaceOnUse">
<stop stop-color="#E8E8E8"/>
<stop offset="1" stop-color="#D1D1D1"/>
</linearGradient>
<linearGradient id="paint1_linear_904_403" x1="224.357" y1="-431.081" x2="203.413" y2="-505.846" gradientUnits="userSpaceOnUse">
<stop offset="0.77" stop-color="#D1D1D1"/>
<stop offset="0.84" stop-color="#CDCDCD"/>
<stop offset="0.93" stop-color="#C1C1C1"/>
<stop offset="1" stop-color="#B3B3B3"/>
</linearGradient>
<linearGradient id="paint2_linear_904_403" x1="-343.308" y1="240.609" x2="-267.872" y2="221.329" gradientUnits="userSpaceOnUse">
<stop offset="0.77" stop-color="#D1D1D1"/>
<stop offset="0.84" stop-color="#CDCDCD"/>
<stop offset="0.93" stop-color="#C1C1C1"/>
<stop offset="1" stop-color="#B3B3B3"/>
</linearGradient>
<linearGradient id="paint3_linear_904_403" x1="316.738" y1="159.373" x2="359.572" y2="84.9881" gradientUnits="userSpaceOnUse">
<stop offset="0.77" stop-color="#B3B3B3"/>
<stop offset="0.83" stop-color="#AEAEAE"/>
<stop offset="0.9" stop-color="#A4A4A4"/>
<stop offset="0.97" stop-color="#929292"/>
<stop offset="1" stop-color="#8B8B8B"/>
</linearGradient>
<linearGradient id="paint4_linear_904_403" x1="-96.8775" y1="-604.073" x2="-45.3782" y2="-528.867" gradientUnits="userSpaceOnUse">
<stop stop-color="#E8E8E8"/>
<stop offset="1" stop-color="#D1D1D1"/>
</linearGradient>
<linearGradient id="paint5_linear_904_403" x1="132.563" y1="170.514" x2="-68.0779" y2="286.762" gradientUnits="userSpaceOnUse">
<stop stop-color="#E8E8E8"/>
<stop offset="1" stop-color="#D1D1D1"/>
</linearGradient>
<linearGradient id="paint6_linear_904_403" x1="58.7446" y1="461.039" x2="111.641" y2="272.141" gradientUnits="userSpaceOnUse">
<stop offset="0.77" stop-color="#D1D1D1"/>
<stop offset="0.84" stop-color="#CDCDCD"/>
<stop offset="0.93" stop-color="#C1C1C1"/>
<stop offset="1" stop-color="#B3B3B3"/>
</linearGradient>
<linearGradient id="paint7_linear_904_403" x1="298.164" y1="122.832" x2="107.603" y2="74.1404" gradientUnits="userSpaceOnUse">
<stop offset="0.77" stop-color="#D1D1D1"/>
<stop offset="0.84" stop-color="#CDCDCD"/>
<stop offset="0.93" stop-color="#C1C1C1"/>
<stop offset="1" stop-color="#B3B3B3"/>
</linearGradient>
<linearGradient id="paint8_linear_904_403" x1="279.757" y1="339.468" x2="171.545" y2="151.535" gradientUnits="userSpaceOnUse">
<stop offset="0.77" stop-color="#B3B3B3"/>
<stop offset="0.83" stop-color="#AEAEAE"/>
<stop offset="0.9" stop-color="#A4A4A4"/>
<stop offset="0.97" stop-color="#929292"/>
<stop offset="1" stop-color="#8B8B8B"/>
</linearGradient>
<linearGradient id="paint9_linear_904_403" x1="126.128" y1="153.599" x2="-3.97486" y2="343.588" gradientUnits="userSpaceOnUse">
<stop stop-color="#E8E8E8"/>
<stop offset="1" stop-color="#D1D1D1"/>
</linearGradient>
<clipPath id="clip0_904_403">
<rect width="453" height="281" fill="white"/>
</clipPath>
</defs>
</svg>
